<mxfile host="app.diagrams.net" agent="Mozilla/5.0 (Windows NT 10.0; Win64; x64) AppleWebKit/537.36 (KHTML, like Gecko) Chrome/131.0.0.0 Safari/537.36" version="25.0.3">
  <diagram id="C5RBs43oDa-KdzZeNtuy" name="Page-1">
    <mxGraphModel dx="792" dy="1145" grid="1" gridSize="10" guides="1" tooltips="1" connect="1" arrows="1" fold="1" page="1" pageScale="1" pageWidth="827" pageHeight="1169" math="0" shadow="0">
      <root>
        <mxCell id="WIyWlLk6GJQsqaUBKTNV-0" />
        <mxCell id="WIyWlLk6GJQsqaUBKTNV-1" parent="WIyWlLk6GJQsqaUBKTNV-0" />
        <mxCell id="QNtJ1NkxgvjZk04XzcQG-11" style="edgeStyle=orthogonalEdgeStyle;rounded=0;orthogonalLoop=1;jettySize=auto;html=1;entryX=0.5;entryY=0;entryDx=0;entryDy=0;" edge="1" parent="WIyWlLk6GJQsqaUBKTNV-1" source="QNtJ1NkxgvjZk04XzcQG-12" target="QNtJ1NkxgvjZk04XzcQG-14">
          <mxGeometry relative="1" as="geometry" />
        </mxCell>
        <mxCell id="QNtJ1NkxgvjZk04XzcQG-12" value="Начало" style="ellipse;whiteSpace=wrap;html=1;" vertex="1" parent="WIyWlLk6GJQsqaUBKTNV-1">
          <mxGeometry x="575" y="310" width="70" height="40" as="geometry" />
        </mxCell>
        <mxCell id="QNtJ1NkxgvjZk04XzcQG-13" style="edgeStyle=orthogonalEdgeStyle;rounded=0;orthogonalLoop=1;jettySize=auto;html=1;entryX=0.5;entryY=0;entryDx=0;entryDy=0;" edge="1" parent="WIyWlLk6GJQsqaUBKTNV-1" source="QNtJ1NkxgvjZk04XzcQG-14" target="QNtJ1NkxgvjZk04XzcQG-21">
          <mxGeometry relative="1" as="geometry" />
        </mxCell>
        <mxCell id="QNtJ1NkxgvjZk04XzcQG-46" value="{" style="edgeLabel;html=1;align=center;verticalAlign=middle;resizable=0;points=[];" vertex="1" connectable="0" parent="QNtJ1NkxgvjZk04XzcQG-13">
          <mxGeometry x="-0.6" y="-2" relative="1" as="geometry">
            <mxPoint x="-8" as="offset" />
          </mxGeometry>
        </mxCell>
        <mxCell id="QNtJ1NkxgvjZk04XzcQG-14" value="void NewtonMethod()" style="shape=process;whiteSpace=wrap;html=1;backgroundOutline=1;" vertex="1" parent="WIyWlLk6GJQsqaUBKTNV-1">
          <mxGeometry x="535" y="375" width="150" height="35" as="geometry" />
        </mxCell>
        <mxCell id="QNtJ1NkxgvjZk04XzcQG-15" style="edgeStyle=orthogonalEdgeStyle;rounded=0;orthogonalLoop=1;jettySize=auto;html=1;entryX=0.5;entryY=0;entryDx=0;entryDy=0;" edge="1" parent="WIyWlLk6GJQsqaUBKTNV-1" source="QNtJ1NkxgvjZk04XzcQG-21" target="QNtJ1NkxgvjZk04XzcQG-29">
          <mxGeometry relative="1" as="geometry" />
        </mxCell>
        <mxCell id="QNtJ1NkxgvjZk04XzcQG-16" value="{" style="edgeLabel;html=1;align=center;verticalAlign=middle;resizable=0;points=[];" vertex="1" connectable="0" parent="QNtJ1NkxgvjZk04XzcQG-15">
          <mxGeometry x="-0.6933" relative="1" as="geometry">
            <mxPoint x="-10" y="3" as="offset" />
          </mxGeometry>
        </mxCell>
        <mxCell id="QNtJ1NkxgvjZk04XzcQG-17" value="1" style="edgeLabel;html=1;align=center;verticalAlign=middle;resizable=0;points=[];" vertex="1" connectable="0" parent="QNtJ1NkxgvjZk04XzcQG-15">
          <mxGeometry x="0.2067" y="2" relative="1" as="geometry">
            <mxPoint x="8" as="offset" />
          </mxGeometry>
        </mxCell>
        <mxCell id="QNtJ1NkxgvjZk04XzcQG-18" style="edgeStyle=orthogonalEdgeStyle;rounded=0;orthogonalLoop=1;jettySize=auto;html=1;entryX=0.5;entryY=0;entryDx=0;entryDy=0;" edge="1" parent="WIyWlLk6GJQsqaUBKTNV-1" source="QNtJ1NkxgvjZk04XzcQG-21" target="QNtJ1NkxgvjZk04XzcQG-27">
          <mxGeometry relative="1" as="geometry">
            <Array as="points">
              <mxPoint x="830" y="482.5" />
              <mxPoint x="830" y="630" />
            </Array>
          </mxGeometry>
        </mxCell>
        <mxCell id="QNtJ1NkxgvjZk04XzcQG-19" value="0" style="edgeLabel;html=1;align=center;verticalAlign=middle;resizable=0;points=[];" vertex="1" connectable="0" parent="QNtJ1NkxgvjZk04XzcQG-18">
          <mxGeometry x="-0.8937" y="3" relative="1" as="geometry">
            <mxPoint x="-7" y="-9" as="offset" />
          </mxGeometry>
        </mxCell>
        <mxCell id="QNtJ1NkxgvjZk04XzcQG-20" value="}" style="edgeLabel;html=1;align=center;verticalAlign=middle;resizable=0;points=[];" vertex="1" connectable="0" parent="QNtJ1NkxgvjZk04XzcQG-18">
          <mxGeometry x="0.6586" y="-2" relative="1" as="geometry">
            <mxPoint x="-58" y="-8" as="offset" />
          </mxGeometry>
        </mxCell>
        <mxCell id="QNtJ1NkxgvjZk04XzcQG-21" value="while (x0 &amp;gt;= 1 || x0 &amp;lt;= 0)" style="rhombus;whiteSpace=wrap;html=1;" vertex="1" parent="WIyWlLk6GJQsqaUBKTNV-1">
          <mxGeometry x="520" y="455" width="180" height="55" as="geometry" />
        </mxCell>
        <mxCell id="QNtJ1NkxgvjZk04XzcQG-22" style="edgeStyle=orthogonalEdgeStyle;rounded=0;orthogonalLoop=1;jettySize=auto;html=1;exitX=0.5;exitY=1;exitDx=0;exitDy=0;entryX=0.5;entryY=0;entryDx=0;entryDy=0;" edge="1" parent="WIyWlLk6GJQsqaUBKTNV-1" source="QNtJ1NkxgvjZk04XzcQG-27" target="QNtJ1NkxgvjZk04XzcQG-34">
          <mxGeometry relative="1" as="geometry" />
        </mxCell>
        <mxCell id="QNtJ1NkxgvjZk04XzcQG-23" value="{" style="edgeLabel;html=1;align=center;verticalAlign=middle;resizable=0;points=[];" vertex="1" connectable="0" parent="QNtJ1NkxgvjZk04XzcQG-22">
          <mxGeometry x="-0.2111" y="2" relative="1" as="geometry">
            <mxPoint x="-12" y="-2" as="offset" />
          </mxGeometry>
        </mxCell>
        <mxCell id="QNtJ1NkxgvjZk04XzcQG-24" value="1" style="edgeLabel;html=1;align=center;verticalAlign=middle;resizable=0;points=[];" vertex="1" connectable="0" parent="QNtJ1NkxgvjZk04XzcQG-22">
          <mxGeometry x="-0.3222" y="2" relative="1" as="geometry">
            <mxPoint x="8" as="offset" />
          </mxGeometry>
        </mxCell>
        <mxCell id="QNtJ1NkxgvjZk04XzcQG-25" style="edgeStyle=orthogonalEdgeStyle;rounded=0;orthogonalLoop=1;jettySize=auto;html=1;entryX=0.5;entryY=0;entryDx=0;entryDy=0;" edge="1" parent="WIyWlLk6GJQsqaUBKTNV-1" source="QNtJ1NkxgvjZk04XzcQG-27" target="QNtJ1NkxgvjZk04XzcQG-38">
          <mxGeometry relative="1" as="geometry">
            <Array as="points">
              <mxPoint x="880" y="669.9999999999998" />
              <mxPoint x="880" y="929" />
            </Array>
          </mxGeometry>
        </mxCell>
        <mxCell id="QNtJ1NkxgvjZk04XzcQG-26" value="0" style="edgeLabel;html=1;align=center;verticalAlign=middle;resizable=0;points=[];" vertex="1" connectable="0" parent="QNtJ1NkxgvjZk04XzcQG-25">
          <mxGeometry x="-0.9363" y="1" relative="1" as="geometry">
            <mxPoint y="-9" as="offset" />
          </mxGeometry>
        </mxCell>
        <mxCell id="QNtJ1NkxgvjZk04XzcQG-27" value="do" style="rhombus;whiteSpace=wrap;html=1;" vertex="1" parent="WIyWlLk6GJQsqaUBKTNV-1">
          <mxGeometry x="575" y="650" width="70" height="40" as="geometry" />
        </mxCell>
        <mxCell id="QNtJ1NkxgvjZk04XzcQG-28" style="edgeStyle=orthogonalEdgeStyle;rounded=0;orthogonalLoop=1;jettySize=auto;html=1;" edge="1" parent="WIyWlLk6GJQsqaUBKTNV-1" source="QNtJ1NkxgvjZk04XzcQG-29">
          <mxGeometry relative="1" as="geometry">
            <mxPoint x="610" y="440" as="targetPoint" />
            <Array as="points">
              <mxPoint x="610" y="600" />
              <mxPoint x="410" y="600" />
              <mxPoint x="410" y="440" />
            </Array>
          </mxGeometry>
        </mxCell>
        <mxCell id="QNtJ1NkxgvjZk04XzcQG-29" value="&lt;div&gt;&amp;nbsp;cout &amp;lt;&amp;lt; &quot;Введите произвольную точку на отрезке (0;1)&quot; &amp;lt;&amp;lt; endl;&lt;/div&gt;&lt;div&gt;&amp;nbsp;cin &amp;gt;&amp;gt; x0;&lt;/div&gt;" style="shape=parallelogram;perimeter=parallelogramPerimeter;whiteSpace=wrap;html=1;fixedSize=1;" vertex="1" parent="WIyWlLk6GJQsqaUBKTNV-1">
          <mxGeometry x="415" y="540" width="390" height="40" as="geometry" />
        </mxCell>
        <mxCell id="QNtJ1NkxgvjZk04XzcQG-30" style="edgeStyle=orthogonalEdgeStyle;rounded=0;orthogonalLoop=1;jettySize=auto;html=1;entryX=0.5;entryY=0;entryDx=0;entryDy=0;" edge="1" parent="WIyWlLk6GJQsqaUBKTNV-1" source="QNtJ1NkxgvjZk04XzcQG-34" target="QNtJ1NkxgvjZk04XzcQG-36">
          <mxGeometry relative="1" as="geometry" />
        </mxCell>
        <mxCell id="QNtJ1NkxgvjZk04XzcQG-31" value="1" style="edgeLabel;html=1;align=center;verticalAlign=middle;resizable=0;points=[];" vertex="1" connectable="0" parent="QNtJ1NkxgvjZk04XzcQG-30">
          <mxGeometry x="-0.2941" relative="1" as="geometry">
            <mxPoint y="-10" as="offset" />
          </mxGeometry>
        </mxCell>
        <mxCell id="QNtJ1NkxgvjZk04XzcQG-32" style="edgeStyle=orthogonalEdgeStyle;rounded=0;orthogonalLoop=1;jettySize=auto;html=1;" edge="1" parent="WIyWlLk6GJQsqaUBKTNV-1" source="QNtJ1NkxgvjZk04XzcQG-34">
          <mxGeometry relative="1" as="geometry">
            <mxPoint x="610" y="810" as="targetPoint" />
            <Array as="points">
              <mxPoint x="710" y="740" />
              <mxPoint x="710" y="810" />
            </Array>
          </mxGeometry>
        </mxCell>
        <mxCell id="QNtJ1NkxgvjZk04XzcQG-33" value="0" style="edgeLabel;html=1;align=center;verticalAlign=middle;resizable=0;points=[];" vertex="1" connectable="0" parent="QNtJ1NkxgvjZk04XzcQG-32">
          <mxGeometry x="-0.7107" y="-1" relative="1" as="geometry">
            <mxPoint y="-11" as="offset" />
          </mxGeometry>
        </mxCell>
        <mxCell id="QNtJ1NkxgvjZk04XzcQG-34" value="if (x1 != 2)" style="rhombus;whiteSpace=wrap;html=1;" vertex="1" parent="WIyWlLk6GJQsqaUBKTNV-1">
          <mxGeometry x="565" y="720" width="90" height="40" as="geometry" />
        </mxCell>
        <mxCell id="QNtJ1NkxgvjZk04XzcQG-35" style="edgeStyle=orthogonalEdgeStyle;rounded=0;orthogonalLoop=1;jettySize=auto;html=1;" edge="1" parent="WIyWlLk6GJQsqaUBKTNV-1" source="QNtJ1NkxgvjZk04XzcQG-36">
          <mxGeometry relative="1" as="geometry">
            <mxPoint x="610" y="810" as="targetPoint" />
            <Array as="points">
              <mxPoint x="510" y="810" />
            </Array>
          </mxGeometry>
        </mxCell>
        <mxCell id="QNtJ1NkxgvjZk04XzcQG-36" value="x0 = x1;" style="rounded=0;whiteSpace=wrap;html=1;" vertex="1" parent="WIyWlLk6GJQsqaUBKTNV-1">
          <mxGeometry x="480" y="770" width="60" height="20" as="geometry" />
        </mxCell>
        <mxCell id="QNtJ1NkxgvjZk04XzcQG-37" style="edgeStyle=orthogonalEdgeStyle;rounded=0;orthogonalLoop=1;jettySize=auto;html=1;entryX=0.5;entryY=0;entryDx=0;entryDy=0;" edge="1" parent="WIyWlLk6GJQsqaUBKTNV-1" source="QNtJ1NkxgvjZk04XzcQG-38" target="QNtJ1NkxgvjZk04XzcQG-40">
          <mxGeometry relative="1" as="geometry" />
        </mxCell>
        <mxCell id="QNtJ1NkxgvjZk04XzcQG-38" value="cout &amp;lt;&amp;lt; &quot;Корень уравнения: &quot; &amp;lt;&amp;lt; setprecision(10) &amp;lt;&amp;lt; x1 &amp;lt;&amp;lt; endl &amp;lt;&amp;lt; endl;" style="shape=parallelogram;perimeter=parallelogramPerimeter;whiteSpace=wrap;html=1;fixedSize=1;" vertex="1" parent="WIyWlLk6GJQsqaUBKTNV-1">
          <mxGeometry x="398.5" y="950" width="423" height="20" as="geometry" />
        </mxCell>
        <mxCell id="QNtJ1NkxgvjZk04XzcQG-39" style="edgeStyle=orthogonalEdgeStyle;rounded=0;orthogonalLoop=1;jettySize=auto;html=1;entryX=0.5;entryY=0;entryDx=0;entryDy=0;" edge="1" parent="WIyWlLk6GJQsqaUBKTNV-1" source="QNtJ1NkxgvjZk04XzcQG-40" target="QNtJ1NkxgvjZk04XzcQG-43">
          <mxGeometry relative="1" as="geometry" />
        </mxCell>
        <mxCell id="QNtJ1NkxgvjZk04XzcQG-48" value="}" style="edgeLabel;html=1;align=center;verticalAlign=middle;resizable=0;points=[];" vertex="1" connectable="0" parent="QNtJ1NkxgvjZk04XzcQG-39">
          <mxGeometry x="-0.15" y="3" relative="1" as="geometry">
            <mxPoint x="7" as="offset" />
          </mxGeometry>
        </mxCell>
        <mxCell id="QNtJ1NkxgvjZk04XzcQG-40" value="x0 = 2;&lt;div&gt;x1 = 2;&lt;/div&gt;" style="rounded=0;whiteSpace=wrap;html=1;" vertex="1" parent="WIyWlLk6GJQsqaUBKTNV-1">
          <mxGeometry x="580" y="990" width="60" height="30" as="geometry" />
        </mxCell>
        <mxCell id="QNtJ1NkxgvjZk04XzcQG-41" style="edgeStyle=orthogonalEdgeStyle;rounded=0;orthogonalLoop=1;jettySize=auto;html=1;" edge="1" parent="WIyWlLk6GJQsqaUBKTNV-1" source="QNtJ1NkxgvjZk04XzcQG-42">
          <mxGeometry relative="1" as="geometry">
            <mxPoint x="610" y="640" as="targetPoint" />
            <Array as="points">
              <mxPoint x="610" y="880" />
              <mxPoint x="340" y="880" />
              <mxPoint x="340" y="640" />
              <mxPoint x="610" y="640" />
            </Array>
          </mxGeometry>
        </mxCell>
        <mxCell id="QNtJ1NkxgvjZk04XzcQG-42" value="x1 = x0 - equation(x0) / ( - ((2 * x0) / (5 * sqrt(1 - ((2 * x0 * x0) / 5)))) - (1 / (sqrt(1 - x0 * x0))));&lt;div&gt;out();&lt;/div&gt;" style="rounded=0;whiteSpace=wrap;html=1;" vertex="1" parent="WIyWlLk6GJQsqaUBKTNV-1">
          <mxGeometry x="360" y="830" width="500" height="40" as="geometry" />
        </mxCell>
        <mxCell id="QNtJ1NkxgvjZk04XzcQG-43" value="Конец" style="ellipse;whiteSpace=wrap;html=1;" vertex="1" parent="WIyWlLk6GJQsqaUBKTNV-1">
          <mxGeometry x="580" y="1060" width="60" height="40" as="geometry" />
        </mxCell>
        <mxCell id="QNtJ1NkxgvjZk04XzcQG-44" value="} while (fabs(x0 - x1) &amp;gt; Epsilon);" style="text;html=1;align=center;verticalAlign=middle;resizable=0;points=[];autosize=1;strokeColor=none;fillColor=none;" vertex="1" parent="WIyWlLk6GJQsqaUBKTNV-1">
          <mxGeometry x="631.5" y="899.1700000000001" width="190" height="30" as="geometry" />
        </mxCell>
        <mxCell id="QNtJ1NkxgvjZk04XzcQG-45" value="" style="endArrow=classic;html=1;rounded=0;entryX=0.5;entryY=0;entryDx=0;entryDy=0;" edge="1" parent="WIyWlLk6GJQsqaUBKTNV-1" target="QNtJ1NkxgvjZk04XzcQG-42">
          <mxGeometry width="50" height="50" relative="1" as="geometry">
            <mxPoint x="610" y="810" as="sourcePoint" />
            <mxPoint x="670" y="660" as="targetPoint" />
          </mxGeometry>
        </mxCell>
      </root>
    </mxGraphModel>
  </diagram>
</mxfile>
